<?xml version="1.0" encoding="UTF-8" standalone="no"?>
<!-- Created with Inkscape (http://www.inkscape.org/) -->

<svg
   width="75.970459mm"
   height="75.970459mm"
   viewBox="0 0 75.970459 75.970459"
   version="1.1"
   id="svg5"
   inkscape:version="1.2.1 (9c6d41e410, 2022-07-14, custom)"
   sodipodi:docname="openjournal.svg"
   inkscape:export-filename="/home/benjamin/Codes/OpenJournal/resources/openjournal.png"
   inkscape:export-xdpi="96"
   inkscape:export-ydpi="96"
   xmlns:inkscape="http://www.inkscape.org/namespaces/inkscape"
   xmlns:sodipodi="http://sodipodi.sourceforge.net/DTD/sodipodi-0.dtd"
   xmlns="http://www.w3.org/2000/svg"
   xmlns:svg="http://www.w3.org/2000/svg">
  <sodipodi:namedview
     id="namedview7"
     pagecolor="#ffffff"
     bordercolor="#666666"
     borderopacity="1.0"
     inkscape:pageshadow="2"
     inkscape:pageopacity="0.0"
     inkscape:pagecheckerboard="0"
     inkscape:document-units="mm"
     showgrid="false"
     fit-margin-top="0"
     fit-margin-left="0"
     fit-margin-right="0"
     fit-margin-bottom="0"
     inkscape:zoom="2.078763"
     inkscape:cx="161.87512"
     inkscape:cy="152.49454"
     inkscape:window-width="1904"
     inkscape:window-height="1036"
     inkscape:window-x="8"
     inkscape:window-y="36"
     inkscape:window-maximized="1"
     inkscape:current-layer="g486"
     inkscape:showpageshadow="2"
     inkscape:deskcolor="#d1d1d1" />
  <defs
     id="defs2">
    <rect
       x="173.60905"
       y="803.94891"
       width="405.03625"
       height="177.8338"
       id="rect4542" />
  </defs>
  <g
     inkscape:label="Layer 1"
     inkscape:groupmode="layer"
     id="layer1"
     transform="translate(-32.277897,-174.62466)">
    <g
       id="g486"
       transform="matrix(0.16493703,0,0,0.16493703,32.410031,175.03027)">
	<path
   style="fill:#00ccff"
   d="m 154.2,447.199 293,-293 C 415.869,64.419 330.464,0 230,0 102.975,0 0,102.974 0,230 0,330.464 64.42,415.869 154.2,447.199 Z"
   id="path450" />

	<path
   style="fill:#37abc8"
   d="m 460,230 c 0,-26.562 -4.517,-52.064 -12.801,-75.801 L 353,60 107,400 154.199,447.199 C 177.936,455.483 203.439,460 230,460 357.026,460 460,357.025 460,230 Z"
   id="path452" />

	<polygon
   style="fill:#5f5fd3"
   points="127,360 191,350 255,360 255,390 127,390 "
   id="polygon454" />

	<polygon
   style="fill:#d7d7f4"
   points="245,340 255,360 127,360 127,330 "
   id="polygon456" />

	<polygon
   style="fill:#8787de"
   points="121.667,330 107,340 107,400 245,400 245,380 137,380 137,340 "
   id="polygon458" />

	<polygon
   style="fill:#000055"
   points="137,60 147,200 137,340 107,340 107,60 "
   id="polygon460" />

	<polygon
   style="fill:#8787de"
   points="245,60 255,200 245,340 137,340 137,60 "
   id="polygon462" />

	<polygon
   style="fill:#3737c8"
   points="245,360 299,350 353,360 353,390 245,390 "
   id="polygon464" />

	<rect
   x="245"
   y="330"
   style="fill:#afafe9"
   width="108"
   height="30"
   id="rect466" />

	<rect
   x="245"
   y="60"
   style="fill:#5f5fd3"
   width="108"
   height="280"
   id="rect468" />

	<polygon
   style="fill:#5f5fd3"
   points="245,380 297.667,380 353,380 353,400 245,400 "
   id="polygon470" />

	<polygon
   style="fill:#2a3c0a"
   points="27,230 60.334,217.5 70.513,230 60.334,242.5 "
   id="polygon472" />

	<polygon
   style="fill:#ffffff"
   points="107,260 127.654,230 107,200 60.334,217.5 60.334,242.5 "
   id="polygon474" />

	<polygon
   style="fill:#ffd170"
   points="107,200 353,200 371.992,230 220.996,238.571 107,230 "
   id="polygon476" />

	<polygon
   style="fill:#ffc240"
   points="353,260 107,260 107,230 371.992,230 "
   id="polygon478" />

	<polygon
   style="fill:#ffe1a0"
   points="373,260 383,230 373,200 353,200 353,260 "
   id="polygon480" />

	<path
   style="fill:#aa1106"
   d="m 424.64,230 v 10 c 0,11 -9,20 -20,20 H 373 v -30 l 25.82,-10 z"
   id="path482" />

	<path
   style="fill:#ff1909"
   d="m 424.64,220 v 10 H 373 v -30 h 31.64 c 11,0 20,9 20,20 z"
   id="path484" />

</g>
    <g
       id="g488"
       transform="matrix(0.16493703,0,0,0.16493703,32.410031,175.03027)">
</g>
    <g
       id="g490"
       transform="matrix(0.16493703,0,0,0.16493703,32.410031,175.03027)">
</g>
    <g
       id="g492"
       transform="matrix(0.16493703,0,0,0.16493703,32.410031,175.03027)">
</g>
    <g
       id="g494"
       transform="matrix(0.16493703,0,0,0.16493703,32.410031,175.03027)">
</g>
    <g
       id="g496"
       transform="matrix(0.16493703,0,0,0.16493703,32.410031,175.03027)">
</g>
    <g
       id="g498"
       transform="matrix(0.16493703,0,0,0.16493703,32.410031,175.03027)">
</g>
    <g
       id="g500"
       transform="matrix(0.16493703,0,0,0.16493703,32.410031,175.03027)">
</g>
    <g
       id="g502"
       transform="matrix(0.16493703,0,0,0.16493703,32.410031,175.03027)">
</g>
    <g
       id="g504"
       transform="matrix(0.16493703,0,0,0.16493703,32.410031,175.03027)">
</g>
    <g
       id="g506"
       transform="matrix(0.16493703,0,0,0.16493703,32.410031,175.03027)">
</g>
    <g
       id="g508"
       transform="matrix(0.16493703,0,0,0.16493703,32.410031,175.03027)">
</g>
    <g
       id="g510"
       transform="matrix(0.16493703,0,0,0.16493703,32.410031,175.03027)">
</g>
    <g
       id="g512"
       transform="matrix(0.16493703,0,0,0.16493703,32.410031,175.03027)">
</g>
    <g
       id="g514"
       transform="matrix(0.16493703,0,0,0.16493703,32.410031,175.03027)">
</g>
    <g
       id="g516"
       transform="matrix(0.16493703,0,0,0.16493703,32.410031,175.03027)">
</g>
  </g>
</svg>
